<?xml version="1.0" standalone="no"?>
<!DOCTYPE svg PUBLIC "-//W3C//DTD SVG 20010904//EN"
 "http://www.w3.org/TR/2001/REC-SVG-20010904/DTD/svg10.dtd">
<svg version="1.0" xmlns="http://www.w3.org/2000/svg"
 width="393.000000pt" height="393.000000pt" viewBox="0 0 393.000000 393.000000"
 preserveAspectRatio="xMidYMid meet">
<metadata>
Created by potrace 1.11, written by Peter Selinger 2001-2013
</metadata>
<g transform="translate(0.000000,393.000000) scale(0.100000,-0.100000)"
fill="#000000" stroke="none">
<path d="M1700 3804 c-109 -110 -209 -189 -395 -315 -240 -161 -467 -430 -595
-702 -98 -209 -169 -459 -211 -737 -27 -178 -32 -549 -11 -695 54 -360 150
-617 307 -826 180 -241 409 -381 734 -450 142 -29 416 -37 586 -15 438 56 661
158 907 414 212 222 357 511 410 817 27 161 22 443 -11 575 -70 279 -182 501
-355 702 -131 152 -263 250 -556 413 -96 54 -209 121 -250 149 -96 64 -235
204 -279 279 -73 124 -121 324 -107 444 l6 53 -38 0 c-34 0 -46 -9 -142 -106z"/>
</g>
</svg>
